<svg width="239" height="324" viewBox="0 0 239 324" fill="none" xmlns="http://www.w3.org/2000/svg">
<path d="M179.63 54.7091C179.63 54.7091 232.161 70.1011 233.46 74.7688C235.508 82.0748 214.23 149.174 204.955 161.576C201.798 165.755 187.413 171.938 185.371 172.167C183.33 172.397 118.689 157.806 117.199 152.851C115.708 147.895 141.697 59.6599 143.958 58.0291C146.218 56.3983 179.63 54.7091 179.63 54.7091Z" fill="#263238" stroke="#263238" stroke-linecap="round" stroke-linejoin="round"/>
<path d="M232.935 75.1965L218.434 81.2383L144.176 57.7343L179.708 54.4681C179.708 54.4681 235.604 70.4843 232.935 75.1965Z" fill="white" stroke="#263238" stroke-linecap="round" stroke-linejoin="round"/>
<path d="M209.635 76.1902L222.449 68.7038L195.283 59.5741L190.007 69.5938L209.635 76.1902Z" fill="#263238"/>
<path d="M218.301 81.5886L185.041 172.263L206.418 162.17C206.418 162.17 232.434 96.7972 232.938 75.5384L218.301 81.5886Z" fill="white" stroke="#263238" stroke-linecap="round" stroke-linejoin="round"/>
<path d="M114.777 72.3687C114.777 72.3687 113.866 74.29 99.2556 76.8046C89.7977 78.3571 80.2171 79.1812 70.5964 79.2699C70.5964 79.2699 77.4587 86.0466 75.7552 95.0215C74.9559 99.5854 73.8903 104.091 72.5638 108.515C72.5638 108.515 79.9346 110.466 92.0113 108.584C104.088 106.702 107.554 105.093 107.554 105.093C107.554 105.093 116.667 85.222 114.777 72.3687Z" fill="white" stroke="#263238" stroke-linecap="round" stroke-linejoin="round"/>
<path d="M74.8214 109.882C66.4435 109.852 59.4892 102.807 59.2885 94.1453C59.0878 85.4839 65.7168 78.4866 74.0947 78.5163C82.4725 78.5461 89.4268 85.5917 89.6275 94.253C89.8282 102.914 83.1993 109.912 74.8214 109.882Z" fill="#263238" stroke="#263238" stroke-linecap="round" stroke-linejoin="round"/>
<path d="M69.7395 111.188C61.3578 111.159 54.383 103.36 54.1609 93.7708C53.9387 84.1811 60.5533 76.4313 68.935 76.461C77.3166 76.4908 84.2914 84.2889 84.5136 93.8785C84.7358 103.468 78.1212 111.218 69.7395 111.188Z" fill="white" stroke="#263238" stroke-linecap="round" stroke-linejoin="round"/>
<path d="M44.0396 75.4747C44.0396 75.4747 59.9139 72.003 69.1018 76.5239C78.2896 81.0449 78.9197 94.5308 75.2914 102.872C71.6631 111.212 63.0112 109.579 59.1283 107.625C55.2453 105.671 40.4992 99.2233 35.5981 95.9999C30.697 92.7764 32.0182 79.6011 34.8268 76.4045C37.6355 73.2079 44.0396 75.4747 44.0396 75.4747Z" fill="white" stroke="#263238" stroke-linecap="round" stroke-linejoin="round"/>
<path d="M41.3139 100.2C33.1146 100.171 26.3194 93.7407 26.1363 85.8379C25.9532 77.935 32.4517 71.5521 40.651 71.5811C48.8502 71.6102 55.6455 78.0403 55.8285 85.9431C56.0116 93.846 49.5132 100.229 41.3139 100.2Z" fill="#263238" stroke="#263238" stroke-linecap="round" stroke-linejoin="round"/>
<path d="M42.1395 67.6988C42.1395 67.6988 48.125 77.6879 48.2593 83.4833C48.3935 89.2787 46.6203 96.0134 41.224 96.9741C35.8277 97.9349 29.879 89.534 29.879 89.534C27.6195 89.2109 25.4345 88.4393 23.4517 87.2642C20.2026 85.3266 17.5108 79.2012 17.5108 79.2012C17.5108 79.2012 14.3157 78.8688 10.7925 78.8563C7.2693 78.8438 3.45157 79.1513 3.39208 76.5831C3.33258 74.0148 11.9188 72.4403 11.9188 72.4403C11.9188 72.4403 4.88178 72.0943 2.92456 70.1614C0.967347 68.2284 0.573801 65.0002 3.44269 65.0104C6.31157 65.0205 18.1599 66.6676 18.1599 66.6676C18.1599 66.6676 8.47948 61.5648 8.96631 55.062C9.45313 48.5593 18.2328 56.0579 18.2328 56.0579C18.2328 56.0579 15.5339 49.6283 21.6444 51.255C27.7549 52.8817 35.4778 56.7611 42.1395 67.6988Z" fill="white" stroke="#263238" stroke-linecap="round" stroke-linejoin="round"/>
<path d="M35.3662 94.4033C25.6871 90.5131 28.7144 83.4546 28.7144 83.4546C28.7144 83.4546 15.7175 74.0733 22.0191 69.9014C28.3208 65.7295 40.7091 79.2859 40.7091 79.2859" fill="white"/>
<path d="M35.3662 94.4033C25.6871 90.5131 28.7144 83.4546 28.7144 83.4546C28.7144 83.4546 15.7175 74.0733 22.0191 69.9014C28.3208 65.7295 40.7091 79.2859 40.7091 79.2859" stroke="#263238" stroke-linecap="round" stroke-linejoin="round"/>
<path d="M18.2829 55.9504C19.7767 57.608 21.4185 59.1244 23.1866 60.4795C26.4344 63.0596 30.6312 65.3219 30.7056 68.5328" fill="white"/>
<path d="M18.2829 55.9504C19.7767 57.608 21.4185 59.1244 23.1866 60.4795C26.4344 63.0596 30.6312 65.3219 30.7056 68.5328" stroke="#263238" stroke-linecap="round" stroke-linejoin="round"/>
<path d="M108.179 278.436C108.179 278.436 113.365 285.108 111.423 291.062C109.482 297.017 104.011 301.912 100.649 306.629C97.2867 311.345 95.2053 319.951 83.9418 322.36C72.6783 324.769 64.3479 318.423 63.3785 314.215C62.409 310.006 65.0346 303.176 65.0186 302.484C65.0025 301.791 73.9475 281.811 73.9475 281.811L108.179 278.436Z" fill="white" stroke="#263238" stroke-linecap="round" stroke-linejoin="round"/>
<path d="M72.8882 277.57L65.9136 299.512C62.4259 310.466 65.2788 316.289 76.552 318.39C87.8253 320.492 92.3921 311.941 98.6698 304.089C104.947 296.237 110.226 288.703 109.028 281.163C107.829 273.622 103.376 272.592 103.376 272.592C103.376 272.592 100.449 278.057 88.2158 278.689C75.9824 279.322 72.8882 277.57 72.8882 277.57Z" fill="white" stroke="#263238" stroke-linecap="round" stroke-linejoin="round"/>
<path d="M69.7415 276.909C71.803 284.913 82.5267 289.269 93.6917 286.608C104.857 283.948 112.231 275.335 110.17 267.33C108.108 259.326 97.3683 254.987 86.2029 257.631C75.0376 260.275 67.6972 268.921 69.7415 276.909Z" fill="white" stroke="#263238" stroke-linecap="round" stroke-linejoin="round"/>
<path d="M96.7938 232.14C96.7938 232.14 109.221 261.443 108.301 265.902C107.38 270.361 96.6409 284.217 82.6132 280.735C68.5854 277.254 70.4339 269.384 70.4339 269.384L62.9772 240.927C62.9772 240.927 90.9211 243.072 96.7938 232.14Z" fill="white" stroke="#263238" stroke-linecap="round" stroke-linejoin="round"/>
<path d="M96.7998 232.115C96.7998 232.115 109.207 261.37 108.288 265.822C108.202 266.217 108.076 266.601 107.912 266.968C79.8972 265.065 67.1833 249.377 64.0627 244.877L63.0333 240.942C63.0333 240.942 90.935 243.03 96.7998 232.115Z" fill="#263238" stroke="#263238" stroke-linecap="round" stroke-linejoin="round"/>
<path d="M59.5935 241.001C61.6717 249.005 72.3951 253.345 83.5604 250.701C94.7256 248.057 102.101 239.461 100.022 231.44C97.9436 223.419 87.2206 219.096 76.0553 221.74C64.8901 224.384 57.5157 233.014 59.5935 241.001Z" fill="white" stroke="#263238" stroke-linecap="round" stroke-linejoin="round"/>
<path d="M93.6559 149.375C93.6559 149.375 67.6612 187.706 61.2669 206.887C58.973 213.764 57.061 221.896 59.2456 229.178C63.4525 243.269 81.7487 246.176 91.2354 236.481C102.887 224.526 125.287 192.02 125.287 192.02C125.287 192.02 125.152 186.182 116.883 181.704C108.614 177.225 97.9801 163.45 97.304 160.368C96.6279 157.287 93.6559 149.375 93.6559 149.375Z" fill="white" stroke="#263238" stroke-linecap="round" stroke-linejoin="round"/>
<path d="M91.0695 236.53C89.4284 238.21 87.481 239.558 85.328 240.504C85.6392 240.15 85.9672 239.796 86.3285 239.425C97.0675 228.375 107.606 180.255 107.606 180.255C108.399 179.055 109.472 178.072 110.734 177.388C112.574 179.049 114.587 180.504 116.735 181.725C125.008 186.205 125.143 192.046 125.143 192.046C125.143 192.046 102.729 224.569 91.0695 236.53Z" fill="#263238" stroke="#263238" stroke-linecap="round" stroke-linejoin="round"/>
<path d="M96.7033 142.232C96.7033 142.232 91.2823 142.55 91.519 152.808C91.7557 163.065 103.664 178.846 109.61 186.053C115.556 193.259 120.026 196.008 138.614 191.956C157.201 187.904 172.645 179.792 177.135 168.151C181.624 156.509 175.041 150.026 169.228 149.314C163.414 148.602 133.445 144.4 120.768 139.565C114.082 137.114 107.546 134.24 101.201 130.962L96.7033 142.232Z" fill="white" stroke="#263238" stroke-linecap="round" stroke-linejoin="round"/>
<path d="M176.354 150.986C176.93 152.924 176.905 154.978 176.281 156.87C175.656 158.762 174.464 160.399 172.864 161.561C167.211 165.986 159.173 170.724 130.577 165.874C101.981 161.024 93.517 146.306 95.0824 140.858C96.372 137.116 98.4971 133.739 101.298 130.982C112.499 140.643 125.998 147.165 140.383 149.866C163.876 153.943 176.354 150.986 176.354 150.986Z" fill="white" stroke="#263238" stroke-linecap="round" stroke-linejoin="round"/>
<path d="M102.896 85.5948C100.53 95.9101 103.999 105.67 110.626 107.369C117.254 109.067 124.538 102.086 126.904 91.7539C129.271 81.4218 125.802 71.6786 119.174 69.9801C112.547 68.2816 105.246 75.2626 102.896 85.5948Z" fill="white" stroke="#263238" stroke-linecap="round" stroke-linejoin="round"/>
<path d="M185.377 81.075C185.377 81.075 190.984 84.8624 191.262 96.8584C191.54 108.854 185.472 144.565 176.925 152.88C168.378 161.196 139.851 161.55 117.541 152.213C95.2319 142.876 98.287 134.997 99.8041 121.554C101.321 108.112 108.48 78.9606 116.596 71.5728C124.712 64.1849 133.997 67.4616 152.498 71.7002C163.6 74.2387 174.575 77.3681 185.377 81.075V81.075Z" fill="white" stroke="#263238" stroke-linecap="round" stroke-linejoin="round"/>
<path d="M171.396 104.698C170.92 112.801 171.765 120.961 173.899 128.858C175.787 135.74 177.246 142.723 178.267 149.767L187.525 128.898C187.525 128.898 179.815 103.416 171.396 104.698Z" fill="#263238" stroke="#263238" stroke-linecap="round" stroke-linejoin="round"/>
<path d="M154.482 96.3653C135.971 96.3042 120.765 87.563 120.519 76.8412C120.273 66.1195 135.08 57.4773 153.591 57.5384C172.102 57.5995 187.307 66.3407 187.553 77.0624C187.8 87.7842 172.993 96.4264 154.482 96.3653Z" fill="white" stroke="#263238" stroke-linecap="round" stroke-linejoin="round"/>
<path d="M171.057 82.9489C171.057 82.9489 176.317 86.8724 173.2 91.4084C173.2 91.4084 186.004 86.2475 188.468 81.0499C190.933 75.8524 183.027 69.3164 183.027 69.3164L169.083 80.3388L171.057 82.9489Z" fill="#263238" stroke="#263238" stroke-linecap="round" stroke-linejoin="round"/>
<path d="M155.011 85.0273C132.011 84.9456 112.931 66.1024 112.395 42.9397C111.858 19.7771 130.068 1.0662 153.067 1.14786C176.067 1.22952 195.146 20.0728 195.683 43.2354C196.22 66.3981 178.01 85.1089 155.011 85.0273Z" fill="white" stroke="#263238" stroke-linecap="round" stroke-linejoin="round"/>
<path d="M174.269 6.98289C181.173 11.0749 186.83 17.0295 190.579 24.1513C194.329 31.2731 196.015 39.268 195.442 47.2023C194.869 55.1366 192.059 62.6827 187.342 68.9593C182.625 75.2359 176.195 79.9838 168.803 82.6485C161.898 78.5565 156.241 72.6019 152.492 65.4801C148.743 58.3583 147.057 50.3634 147.63 42.4291C148.203 34.4948 151.012 26.9486 155.729 20.6721C160.446 14.3955 166.877 9.64761 174.269 6.98289V6.98289Z" fill="#263238" stroke="#263238" stroke-linecap="round" stroke-linejoin="round"/>
<path d="M130.142 8.15992C135.535 6.5359 141.269 6.24014 146.87 7.29715C152.47 8.35416 157.776 10.7335 162.347 14.238C166.918 17.7425 170.622 22.2713 173.154 27.449C175.685 32.6267 176.97 38.3043 176.902 44.0112C176.834 49.7182 175.416 55.2901 172.764 60.2654C170.112 65.2407 166.304 69.476 161.654 72.6204C157.004 75.7647 151.647 77.7276 146.026 78.3463C140.406 78.9651 134.684 78.2218 129.334 76.1782C124.025 72.0843 119.725 66.8048 116.788 60.7744C113.85 54.7441 112.359 48.1356 112.438 41.4934C112.517 34.8511 114.163 28.3651 117.241 22.5698C120.319 16.7744 124.741 11.8355 130.142 8.15992V8.15992Z" fill="white" stroke="#263238" stroke-linecap="round" stroke-linejoin="round"/>
<path d="M154.011 285.604C155.078 288.54 154.966 291.75 153.698 294.54C151.542 299.086 146.788 304.314 138.392 309.9C129.996 315.487 118.771 318.265 113.001 317.166C107.231 316.067 102.121 313.099 100.278 308.692C98.4343 304.284 98.8984 301.166 99.7574 300.647C100.616 300.127 102.577 302.342 115.604 294.209C128.631 286.075 131.802 280.47 139.888 280.346C147.975 280.222 154.299 282.84 154.011 285.604Z" fill="white" stroke="#263238" stroke-linecap="round" stroke-linejoin="round"/>
<path d="M114.816 282.077C114.816 282.077 108.566 290.603 104.551 293.657C100.535 296.711 98.2136 298.423 100.367 303.217C102.52 308.011 107.065 314.179 118.571 312.852C130.114 311.628 140.656 306.046 148.084 297.224C155.348 288.366 155.254 284.269 152.778 282.896C150.301 281.522 139.915 284.218 134.138 284.199C128.361 284.179 122.188 280.787 119.785 279.7C117.382 278.614 115.844 278.71 114.816 282.077Z" fill="white" stroke="#263238" stroke-linecap="round" stroke-linejoin="round"/>
<path d="M157.453 274.171C157.453 274.171 159.326 283.04 154.009 286.775C148.693 290.509 127.664 290.784 118.385 285.644C109.105 280.503 114.074 274.716 117.741 272.002C121.409 269.288 138.596 279.564 143.624 277.124C148.652 274.683 149.129 280.958 157.453 274.171Z" fill="white" stroke="#263238" stroke-linecap="round" stroke-linejoin="round"/>
<path d="M152.932 234.551C152.932 234.551 159.558 270.577 158.679 276.828C157.8 283.079 149.727 286.736 131.997 284.272C114.266 281.809 110.719 275.019 113.964 269.469C115.708 266.517 114.572 245.029 114.572 245.029C114.572 245.029 136.998 251.651 152.932 234.551Z" fill="white" stroke="#263238" stroke-linecap="round" stroke-linejoin="round"/>
<path d="M112.159 253.381L114.963 249.842C123.228 249.533 141.047 247.315 152.934 234.582C152.934 234.582 159.556 270.566 158.676 276.731C158.463 277.997 157.954 279.185 157.19 280.199C156.426 281.212 155.429 282.023 154.28 282.562C153.862 282.594 153.441 282.593 153.022 282.558C134.376 280.244 112.159 253.381 112.159 253.381Z" fill="#263238" stroke="#263238" stroke-linecap="round" stroke-linejoin="round"/>
<path d="M152.86 228.989C152.86 228.989 158.422 234.828 151.139 243C143.856 251.173 137.221 257.661 120.585 257.603C103.948 257.546 104.015 245.925 107.234 238.751C110.452 231.576 135.14 213.208 152.86 228.989Z" fill="white" stroke="#263238" stroke-linecap="round" stroke-linejoin="round"/>
<path d="M104.538 229.193C105.748 221.32 109.12 213.996 111.397 206.498C113.674 199.001 116.389 190.846 121.963 185.118C129.603 177.268 160.815 173.271 167.446 179.803C174.076 186.334 168.176 211.332 154.999 230.133C148.874 238.885 140.404 247.882 129.612 250.819C123.763 252.488 117.445 251.862 111.914 249.065C104.517 244.982 103.356 236.881 104.522 229.227L104.538 229.193Z" fill="white" stroke="#263238" stroke-linecap="round" stroke-linejoin="round"/>
<path d="M137.14 247.311C153.117 227.505 154.808 189.623 154.892 176.39C160.535 176.544 165.238 177.542 167.374 179.65C174.006 186.195 168.098 211.253 154.877 230.103C150.198 236.764 144.194 243.624 136.763 247.734L137.14 247.311Z" fill="#263238" stroke="#263238" stroke-linecap="round" stroke-linejoin="round"/>
<path d="M123.045 100.6L148.018 108.944C148.469 109.093 148.889 109.329 149.254 109.639C149.618 109.95 149.92 110.328 150.142 110.753C150.364 111.177 150.501 111.639 150.546 112.113C150.591 112.586 150.542 113.061 150.404 113.511L145.301 129.937C145.023 130.837 144.401 131.579 143.569 132.003C142.737 132.427 141.764 132.498 140.861 132.201L116.078 124.077C115.177 123.776 114.421 123.134 113.972 122.289C113.522 121.444 113.416 120.465 113.676 119.561L118.555 102.914C118.685 102.457 118.906 102.034 119.203 101.668C119.501 101.303 119.87 101.004 120.289 100.788C120.708 100.572 121.167 100.445 121.641 100.412C122.114 100.38 122.592 100.444 123.045 100.6V100.6Z" fill="white" stroke="#263238" stroke-linecap="round" stroke-linejoin="round"/>
<path d="M136.604 119.13C136.62 119.835 136.844 120.525 137.247 121.112C137.649 121.7 138.213 122.159 138.866 122.431C139.519 122.703 140.233 122.777 140.916 122.641C141.6 122.506 142.223 122.169 142.706 121.672C143.19 121.175 143.512 120.541 143.633 119.85C143.753 119.159 143.667 118.442 143.384 117.789C143.101 117.137 142.634 116.578 142.043 116.185C141.451 115.791 140.762 115.579 140.062 115.577C139.596 115.573 139.137 115.662 138.711 115.839C138.284 116.016 137.899 116.277 137.578 116.607C137.256 116.937 137.005 117.33 136.837 117.763C136.67 118.196 136.591 118.661 136.604 119.13V119.13Z" fill="#263238"/>
<path d="M130.937 119.575C128.982 119.568 127.36 117.966 127.315 115.997C127.269 114.028 128.817 112.437 130.772 112.444C132.727 112.451 134.349 114.053 134.395 116.022C134.441 117.991 132.893 119.582 130.937 119.575Z" fill="#263238"/>
<path d="M118.058 112.847C118.071 113.554 118.293 114.246 118.694 114.836C119.095 115.427 119.659 115.888 120.313 116.162C120.967 116.437 121.681 116.511 122.367 116.377C123.052 116.242 123.676 115.904 124.161 115.406C124.645 114.909 124.968 114.273 125.088 113.58C125.208 112.888 125.12 112.169 124.835 111.516C124.55 110.863 124.08 110.304 123.487 109.912C122.893 109.519 122.201 109.31 121.5 109.311C120.565 109.308 119.678 109.678 119.032 110.342C118.387 111.005 118.037 111.906 118.058 112.847Z" fill="#263238"/>
<path d="M170.676 100.81C168.716 111.19 173.31 120.967 180.941 122.617C188.572 124.268 196.354 117.208 198.314 106.811C200.274 96.414 195.681 86.6538 188.049 84.9861C180.418 83.3183 172.653 90.4129 170.676 100.81Z" fill="white" stroke="#263238" stroke-linecap="round" stroke-linejoin="round"/>
<path d="M190.902 139.38C190.902 139.38 177.072 122.169 177.848 112.889C178.623 103.609 184.244 91.1169 196.329 95.3361C208.415 99.5552 224.378 133.462 224.086 140.428C223.794 147.393 220.131 148.749 220.131 148.749C220.131 148.749 212.191 142.262 202.928 141.739C193.665 141.216 190.902 139.38 190.902 139.38Z" fill="white" stroke="#263238" stroke-linecap="round" stroke-linejoin="round"/>
<path d="M207.536 167.404C196.865 167.366 188.03 159.35 187.802 149.499C187.574 139.648 196.039 131.693 206.71 131.731C217.381 131.768 226.217 139.785 226.445 149.636C226.673 159.487 218.207 167.442 207.536 167.404Z" fill="white" stroke="#263238" stroke-linecap="round" stroke-linejoin="round"/>
<path d="M217.561 149.578C217.365 141.115 210.814 134.034 202.215 132.143C203.666 131.829 205.15 131.669 206.642 131.667C217.333 131.704 226.191 139.741 226.419 149.609C226.647 159.476 218.158 167.452 207.535 167.416C206.043 167.409 204.552 167.245 203.086 166.926C211.532 165.094 217.756 158.041 217.561 149.578Z" fill="#263238" stroke="#263238" stroke-linecap="round" stroke-linejoin="round"/>
<path d="M174.67 158.178C174.67 158.178 192.252 142.483 205.122 142.072C217.993 141.662 226.152 156.503 220.396 165.772C214.64 175.041 187.323 186.04 187.323 186.04C187.323 186.04 189.164 167.029 174.67 158.178Z" fill="white" stroke="#263238" stroke-linecap="round" stroke-linejoin="round"/>
<path d="M163.907 178.757C167.071 188.492 175.807 194.475 183.411 192.168C191.014 189.861 194.633 180.083 191.486 170.349C188.339 160.614 179.586 154.631 171.983 156.954C164.38 159.278 160.794 169.039 163.907 178.757Z" fill="#263238" stroke="#263238" stroke-linecap="round" stroke-linejoin="round"/>
<path d="M149.884 165.503C149.884 165.503 148.737 170.275 144.978 170.768C141.219 171.261 136.487 170.991 136.575 174.771C136.688 176.501 137.426 178.146 138.65 179.394C139.874 180.643 141.499 181.408 143.216 181.544C146.473 181.809 148.719 181.816 154.357 177.061C159.995 172.305 163.205 170.544 163.662 168.538C164.118 166.531 161.973 159.977 158.46 160.977C155.425 162.136 152.547 163.655 149.884 165.503V165.503Z" fill="white" stroke="#263238" stroke-linecap="round" stroke-linejoin="round"/>
<path d="M178.781 160.607C178.781 160.607 164.991 152.684 160.142 152.667C155.293 152.65 145.854 166.657 145.941 170.426C146.028 174.194 148.201 180.369 149.535 180.711C150.191 180.738 150.841 180.624 151.443 180.376C152.044 180.128 152.582 179.753 153.022 179.275C153.462 178.797 153.793 178.227 153.993 177.603C154.193 176.98 154.258 176.317 154.182 175.659C154.249 172.876 155.005 170.172 156.382 167.793L158.398 166.432C158.398 166.432 153.944 179.139 153.326 182.854C152.9 185.471 152.414 186.956 155.843 188.692C157.602 189.605 159.468 190.276 161.392 190.689C163.392 191.558 165.456 192.255 167.564 192.772C169.787 193.208 172.038 193.442 174.292 193.472C176.28 194.209 178.35 194.676 180.447 194.862C182.83 194.871 185.394 191.112 187.349 184.276C189.305 177.44 185.509 164.213 178.781 160.607Z" fill="white" stroke="#263238" stroke-linecap="round" stroke-linejoin="round"/>
<path d="M161.36 190.772C161.36 190.772 164.505 168.018 170.423 162.726" stroke="#263238" stroke-linecap="round" stroke-linejoin="round"/>
<path d="M174.317 193.559C174.317 193.559 175.485 179.164 179.085 170.819" stroke="#263238" stroke-linecap="round" stroke-linejoin="round"/>
<path d="M158.586 166.312C159.704 163.746 160.99 161.261 162.436 158.872" stroke="#263238" stroke-linecap="round" stroke-linejoin="round"/>
<path opacity="0.4" d="M19.6939 59.7614C14.6203 54.44 11.0065 54.0387 8.11432 54.9957C8.80195 48.9637 17.3891 56.1946 17.3891 56.1946C17.3891 56.1946 14.6815 49.745 20.8162 51.3747C26.951 53.0043 34.721 56.9104 41.406 67.8813C41.406 67.8813 42.4918 69.6984 43.7455 72.2279C45.6978 72.6949 47.5456 73.5542 49.1764 74.7537C54.6705 74.1439 62.9682 73.865 68.692 76.6799C71.3489 76.7013 73.9633 77.4922 76.2228 78.958C76.8331 79.0614 77.4379 79.1991 78.0345 79.3705C85.1733 79.0232 92.2758 78.2647 99.3072 77.0987C103.166 76.4329 106.015 75.8147 108.243 75.2454C111.374 71.4755 115.338 69.5218 119.13 70.3304C119.93 69.7699 120.782 69.2847 121.674 68.8807C121.136 68.1841 120.63 67.4536 120.142 66.7232L119.985 66.4854C119.619 65.9249 119.269 65.3645 118.919 64.7871L118.709 64.4304C118.393 63.8701 118.077 63.3097 117.777 62.7325C117.719 62.6103 117.655 62.4912 117.584 62.3759C117.266 61.7478 116.965 61.1197 116.681 60.4747C116.674 60.4183 116.673 60.3615 116.677 60.3052C116.04 58.8865 115.478 57.4362 114.995 55.9606L114.831 55.4347C114.667 54.8748 114.503 54.3319 114.354 53.7381C114.349 53.4839 114.225 53.2462 114.169 52.9918C114.113 52.7373 113.928 52.0079 113.815 51.499C113.702 50.9902 113.701 50.9393 113.661 50.668C113.621 50.3966 113.487 49.6843 113.408 49.1925C113.33 48.7007 113.396 48.6331 113.271 48.3446C113.147 48.056 113.146 47.2933 113.1 46.7507L113.083 46.0218C113.065 45.2251 113.047 44.4453 113.029 43.6486C113.01 42.818 112.991 41.9535 112.973 41.1738C112.967 40.9195 112.961 40.6652 112.955 40.411C112.942 39.8346 113.03 39.2755 113.068 38.7163C113.062 38.4451 113.055 38.1569 113.167 37.8861C113.154 37.3097 113.31 36.7508 113.398 36.1918C113.393 35.9714 113.388 35.7341 113.5 35.4971C113.633 34.7009 113.801 33.9217 113.968 33.1426C113.968 33.1426 113.968 33.1425 113.967 33.0578C114.135 32.3125 114.337 31.5843 114.556 30.8562C114.551 30.6358 114.698 30.4159 114.76 30.1958C114.933 29.6539 115.106 29.112 115.296 28.5872L115.566 27.8761C115.773 27.3344 115.996 26.7927 116.218 26.1832L116.458 25.6246C116.779 24.9137 117.116 24.2029 117.471 23.4921C117.809 22.8151 118.198 22.1553 118.571 21.5124C118.689 21.3441 118.797 21.169 118.896 20.988L119.839 19.5163L120.215 18.992C120.573 18.4677 120.932 17.9773 121.326 17.487L121.587 17.1149C122.552 15.9456 123.578 14.8286 124.66 13.7685L125.022 13.3967C125.467 12.9744 125.912 12.552 126.375 12.1467L126.804 11.7752C127.299 11.336 127.812 10.9139 128.325 10.5087L128.589 10.2892C133.516 6.49179 139.26 3.88522 145.394 2.66391C112.34 30.4424 121.646 59.5751 124.5 70.2118C107.978 89.4657 99.1888 133.881 102.686 143.198C100.188 140.749 96.1012 146.194 99.349 151.222C93.0448 150.286 92.1889 155.589 94.7735 164.767C89.6577 167.192 68.3585 210.347 65.4885 218.915C62.6185 227.483 72.6744 258.465 76.1967 271.087C77.333 274.717 77.5627 278.55 76.8649 282.243C76.1672 285.936 74.564 289.373 72.1993 292.245C71.6103 293.006 65.8347 308.582 67.9774 319.064C65.9786 317.856 64.4546 315.983 63.6794 313.779C62.7071 309.555 65.3466 302.699 65.3308 302.004C65.3898 301.741 65.4743 301.486 65.5829 301.242C65.7688 300.53 65.9707 299.785 66.2225 299.006L72.0705 280.702C71.1178 279.477 70.4258 278.072 70.0392 276.576C69.4216 274.093 69.6348 271.494 70.6453 269.188V269.188L65.1114 248.136C62.4372 246.497 60.4703 243.897 59.623 240.881C58.9492 238.044 59.325 235.085 60.6796 232.561C60.124 231.52 59.6703 230.428 59.325 229.303C57.1371 222.007 59.0566 213.86 61.3585 206.969C66.6856 190.934 85.7226 161.569 91.8941 152.266C91.9344 146.655 93.7493 144.254 95.2253 143.242C95.1345 142.524 95.1808 141.8 95.3618 141.107C96.1935 138.509 97.4783 136.092 99.1571 133.966C99.2283 129.985 99.5768 126.021 100.2 122.104C100.856 117.011 101.769 111.962 102.937 106.976L102.735 106.976C105.463 95.8988 108.983 85.5195 110.93 79.3219C103.787 83.7233 82.1912 85.8417 68.7572 83.2228C55.3233 80.6039 53.0673 85.8174 48.7848 85.6344C44.5022 85.4514 38.0657 72.8202 34.1448 64.1293C30.2238 55.4385 17.9061 53.7554 19.6939 59.7614Z" fill="#92E3A9"/>
</svg>
