<svg width="143" height="36" viewBox="0 0 143 36" fill="none" xmlns="http://www.w3.org/2000/svg">
<path d="M25.2352 8.51636C20.2522 8.51636 10.2708 5.00767 10.2708 0.67923H10.197C10.197 4.14351 11.7813 7.4659 14.6015 9.91556C17.4216 12.3652 21.2465 13.7415 25.2348 13.7416C27.6278 13.7416 29.9228 14.5673 31.615 16.0371C33.3072 17.5069 34.2578 19.5004 34.2578 21.5789C34.2584 23.6575 33.3082 25.6513 31.6164 27.1213C29.9245 28.5915 27.6297 29.4175 25.2367 29.418C22.8435 29.4183 20.5483 28.5929 18.8558 27.1234C17.1633 25.6539 16.2122 23.6606 16.2118 21.582C16.2117 19.8666 15.8227 18.168 15.0669 16.5832C14.3111 14.9984 13.2033 13.5585 11.8068 12.3455C10.4103 11.1326 8.75246 10.1705 6.92787 9.51409C5.1033 8.8577 3.14773 8.51989 1.17285 8.51995V8.58354C6.15512 8.58354 10.1946 17.2497 10.1965 21.5788H10.1955C10.1955 24.1623 11.0774 26.6878 12.7298 28.8359C14.3822 30.984 16.7308 32.6583 19.4787 33.6469C22.2266 34.6358 25.2502 34.8946 28.1675 34.3905C31.0846 33.8866 33.7642 32.6426 35.8675 30.816C37.9706 28.9892 39.403 26.6618 39.9835 24.1279C40.564 21.5941 40.2662 18.9677 39.1282 16.5808C37.9902 14.1939 36.0628 12.1538 33.5899 10.7183C31.1169 9.28283 28.2094 8.51656 25.2352 8.51636Z" fill="url(#paint0_linear_64_427)"/>
<path d="M50.0488 30.0944V12.6385H52.6981L58.8882 24.0529L65.0534 12.6385H67.6532V30.0944H64.7811V18.3333L59.7795 27.445H57.9225L52.921 18.3828V30.0944H50.0488ZM77.1652 30.342C75.7951 30.342 74.6149 30.0861 73.6245 29.5744C72.6341 29.0627 71.8665 28.3364 71.3218 27.3955C70.7936 26.4546 70.5295 25.3404 70.5295 24.0529C70.5295 22.7984 70.7853 21.7007 71.297 20.7598C71.8252 19.8189 72.5433 19.0844 73.4511 18.5562C74.3755 18.0114 75.4237 17.7391 76.5957 17.7391C78.3124 17.7391 79.6659 18.2838 80.6563 19.3732C81.6632 20.4627 82.1667 21.9483 82.1667 23.8301V24.7462H73.5007C73.7318 26.9086 74.9698 27.9898 77.2147 27.9898C77.8915 27.9898 78.5682 27.8907 79.245 27.6926C79.9218 27.478 80.5408 27.1479 81.102 26.7022L81.9686 28.7821C81.3909 29.2608 80.6646 29.6404 79.7897 29.921C78.9149 30.2017 78.04 30.342 77.1652 30.342ZM76.7195 19.8437C75.8116 19.8437 75.0771 20.1243 74.5158 20.6855C73.9546 21.2468 73.6162 22.0061 73.5007 22.9635H79.5916C79.5256 21.9566 79.245 21.189 78.7498 20.6608C78.2711 20.1161 77.5943 19.8437 76.7195 19.8437ZM90.1156 30.342C86.9133 30.342 85.3122 28.7573 85.3122 25.588V20.3141H82.9847V17.9867H85.3122V14.3717H88.4072V17.9867H92.0717V20.3141H88.4072V25.4147C88.4072 26.207 88.5805 26.8013 88.9272 27.1974C89.2738 27.5936 89.835 27.7917 90.6108 27.7917C90.8419 27.7917 91.0813 27.7669 91.3289 27.7174C91.5765 27.6514 91.8323 27.5853 92.0965 27.5193L92.5669 29.7972C92.2698 29.9623 91.8901 30.0944 91.4279 30.1934C90.9822 30.2924 90.5448 30.342 90.1156 30.342ZM99.9183 30.342C98.5483 30.342 97.368 30.0861 96.3776 29.5744C95.3872 29.0627 94.6197 28.3364 94.0749 27.3955C93.5467 26.4546 93.2826 25.3404 93.2826 24.0529C93.2826 22.7984 93.5385 21.7007 94.0502 20.7598C94.5784 19.8189 95.2964 19.0844 96.2043 18.5562C97.1287 18.0114 98.1769 17.7391 99.3488 17.7391C101.066 17.7391 102.419 18.2838 103.409 19.3732C104.416 20.4627 104.92 21.9483 104.92 23.8301V24.7462H96.2538C96.4849 26.9086 97.7229 27.9898 99.9678 27.9898C100.645 27.9898 101.321 27.8907 101.998 27.6926C102.675 27.478 103.294 27.1479 103.855 26.7022L104.722 28.7821C104.144 29.2608 103.418 29.6404 102.543 29.921C101.668 30.2017 100.793 30.342 99.9183 30.342ZM99.4726 19.8437C98.5648 19.8437 97.8302 20.1243 97.269 20.6855C96.7078 21.2468 96.3694 22.0061 96.2538 22.9635H102.345C102.279 21.9566 101.998 21.189 101.503 20.6608C101.024 20.1161 100.347 19.8437 99.4726 19.8437ZM112.892 30.342C111.638 30.342 110.548 30.0861 109.624 29.5744C108.7 29.0627 107.982 28.3364 107.47 27.3955C106.958 26.4381 106.702 25.3157 106.702 24.0281C106.702 22.7406 106.958 21.6264 107.47 20.6855C107.982 19.7447 108.7 19.0184 109.624 18.5066C110.548 17.9949 111.638 17.7391 112.892 17.7391C114.147 17.7391 115.236 17.9949 116.161 18.5066C117.085 19.0184 117.803 19.7447 118.315 20.6855C118.827 21.6264 119.082 22.7406 119.082 24.0281C119.082 25.3157 118.827 26.4381 118.315 27.3955C117.803 28.3364 117.085 29.0627 116.161 29.5744C115.236 30.0861 114.147 30.342 112.892 30.342ZM112.892 27.9898C113.817 27.9898 114.56 27.6596 115.121 26.9994C115.682 26.3226 115.963 25.3322 115.963 24.0281C115.963 22.7076 115.682 21.7255 115.121 21.0817C114.56 20.4214 113.817 20.0913 112.892 20.0913C111.968 20.0913 111.225 20.4214 110.664 21.0817C110.103 21.7255 109.822 22.7076 109.822 24.0281C109.822 25.3322 110.103 26.3226 110.664 26.9994C111.225 27.6596 111.968 27.9898 112.892 27.9898ZM121.637 30.0944V17.9867H124.658V20.1161C125.252 18.68 126.523 17.8876 128.471 17.7391L129.412 17.6648L129.61 20.2894L127.827 20.4627C125.797 20.6608 124.781 21.7007 124.781 23.5825V30.0944H121.637Z" fill="url(#paint1_linear_64_427)"/>
<defs>
<linearGradient id="paint0_linear_64_427" x1="1.17285" y1="17.6604" x2="40.2727" y2="17.6604" gradientUnits="userSpaceOnUse">
<stop stop-color="#EC008C"/>
<stop offset="1" stop-color="#FC6767"/>
</linearGradient>
<linearGradient id="paint1_linear_64_427" x1="48.0928" y1="17.6604" x2="142.714" y2="17.6604" gradientUnits="userSpaceOnUse">
<stop stop-color="#EC008C"/>
<stop offset="1" stop-color="#FC6767"/>
</linearGradient>
</defs>
</svg>
