<svg width="479" height="686" viewBox="0 0 479 686" fill="none" xmlns="http://www.w3.org/2000/svg">
<path opacity="0.6" d="M37.2503 610.675C37.2503 613.369 36.4519 616.003 34.9562 618.243C33.4605 620.483 31.3347 622.229 28.8474 623.26C26.3601 624.291 23.6232 624.561 20.9827 624.035C18.3423 623.509 15.9169 622.212 14.0132 620.307C12.1095 618.402 10.8132 615.975 10.2879 613.332C9.76271 610.69 10.0322 607.951 11.0625 605.462C12.0927 602.973 13.8375 600.845 16.0759 599.349C18.3144 597.852 20.9461 597.053 23.6383 597.053C27.2484 597.053 30.7107 598.488 33.2634 601.043C35.8161 603.597 37.2503 607.062 37.2503 610.675Z" fill="#263238"/>
<path opacity="0.6" d="M53.8188 584.641C53.8226 585.958 53.4357 587.246 52.7073 588.342C51.9788 589.438 50.9415 590.293 49.727 590.798C48.5124 591.304 47.1751 591.437 45.8847 591.181C44.5944 590.925 43.409 590.292 42.4788 589.361C41.5487 588.43 40.9156 587.244 40.6599 585.953C40.4042 584.661 40.5374 583.323 41.0426 582.108C41.5477 580.892 42.4021 579.854 43.4974 579.125C44.5928 578.396 45.8797 578.009 47.1952 578.013C48.9518 578.013 50.6366 578.711 51.8787 579.954C53.1209 581.197 53.8188 582.883 53.8188 584.641Z" fill="#263238"/>
<path opacity="0.6" d="M345.199 604.085C345.199 605.399 344.809 606.685 344.079 607.778C343.349 608.871 342.312 609.723 341.098 610.226C339.884 610.729 338.549 610.861 337.26 610.605C335.971 610.348 334.788 609.715 333.859 608.785C332.93 607.856 332.297 606.671 332.041 605.382C331.784 604.092 331.916 602.755 332.419 601.541C332.922 600.326 333.773 599.288 334.865 598.557C335.958 597.827 337.242 597.437 338.556 597.437C340.318 597.437 342.007 598.137 343.253 599.384C344.499 600.631 345.199 602.322 345.199 604.085Z" fill="#263238"/>
<path opacity="0.6" d="M478.112 664.721C478.116 666.036 477.73 667.324 477.002 668.419C476.274 669.515 475.238 670.37 474.025 670.876C472.811 671.382 471.475 671.517 470.185 671.262C468.895 671.008 467.71 670.376 466.779 669.447C465.848 668.519 465.214 667.334 464.956 666.044C464.698 664.754 464.828 663.416 465.33 662.201C465.833 660.985 466.684 659.945 467.777 659.214C468.87 658.483 470.155 658.092 471.469 658.092C473.228 658.092 474.915 658.79 476.16 660.033C477.405 661.275 478.107 662.961 478.112 664.721Z" fill="#263238"/>
<path d="M342.818 618.956L332.566 620.838L330.262 631.675L327.977 620.838L317.706 618.936L327.92 616.439L330.262 606.217L332.604 616.439L342.818 618.956Z" fill="#FCFCFC"/>
<path d="M243.004 532.133L232.732 534.035L230.448 544.851L228.163 534.035L217.892 532.133L228.105 529.635L230.448 519.394L232.79 529.635L243.004 532.133Z" fill="#FCFCFC"/>
<path d="M93.8673 639.571L88.1269 640.628L86.8406 646.68L85.5734 640.628L79.833 639.552L85.5351 638.168L86.8406 632.443L88.1461 638.168L93.8673 639.571Z" fill="#FCFCFC"/>
<path d="M402.488 657.612L396.748 658.668L395.48 664.721L394.194 658.668L388.454 657.612L394.156 656.209L395.48 650.503L396.786 656.209L402.488 657.612Z" fill="#FCFCFC"/>
<path d="M14.922 678.823L9.20075 679.88L7.91446 685.932L6.62812 679.88L0.887695 678.823L6.60896 677.42L7.91446 671.695L9.21997 677.42L14.922 678.823Z" fill="#FCFCFC"/>
<path d="M264.43 673.789L258.689 674.846L257.403 680.898L256.136 674.846L250.396 673.789L256.098 672.387L257.403 666.661L258.709 672.387L264.43 673.789Z" fill="#FCFCFC"/>
<path d="M222.442 515.667L216.702 516.724L215.415 522.776L214.129 516.724L208.408 515.667L214.11 514.265L215.415 508.558L216.721 514.265L222.442 515.667Z" fill="#FCFCFC"/>
<path d="M416.062 670.696C415.652 670.74 415.273 670.934 414.998 671.241C414.723 671.548 414.57 671.945 414.57 672.358C414.57 672.77 414.723 673.168 414.998 673.475C415.273 673.781 415.652 673.975 416.062 674.02C416.471 673.975 416.85 673.781 417.126 673.475C417.401 673.168 417.553 672.77 417.553 672.358C417.553 671.945 417.401 671.548 417.126 671.241C416.85 670.934 416.471 670.74 416.062 670.696V670.696Z" fill="#FCFCFC"/>
<path d="M200.229 494.687C199.819 494.731 199.44 494.925 199.165 495.232C198.89 495.538 198.737 495.936 198.737 496.349C198.737 496.761 198.89 497.159 199.165 497.465C199.44 497.772 199.819 497.966 200.229 498.01C200.638 497.966 201.017 497.772 201.293 497.465C201.568 497.159 201.72 496.761 201.72 496.349C201.72 495.936 201.568 495.538 201.293 495.232C201.017 494.925 200.638 494.731 200.229 494.687V494.687Z" fill="#FCFCFC"/>
<path d="M58.388 678.823C57.9783 678.867 57.5994 679.061 57.3241 679.368C57.0488 679.675 56.8965 680.073 56.8965 680.485C56.8965 680.897 57.0488 681.295 57.3241 681.602C57.5994 681.909 57.9783 682.103 58.388 682.147C58.7976 682.103 59.1765 681.909 59.4518 681.602C59.7271 681.295 59.8795 680.897 59.8795 680.485C59.8795 680.073 59.7271 679.675 59.4518 679.368C59.1765 679.061 58.7976 678.867 58.388 678.823V678.823Z" fill="#FCFCFC"/>
<path d="M163.77 655.94C163.327 655.94 162.903 656.116 162.589 656.43C162.276 656.743 162.1 657.169 162.1 657.612C162.1 658.055 162.276 658.48 162.589 658.794C162.903 659.107 163.327 659.283 163.77 659.283C164.213 659.283 164.638 659.107 164.951 658.794C165.265 658.48 165.441 658.055 165.441 657.612C165.441 657.169 165.265 656.743 164.951 656.43C164.638 656.116 164.213 655.94 163.77 655.94V655.94Z" fill="#FCFCFC"/>
<path d="M374.4 640.781C374.09 640.781 373.792 640.905 373.572 641.125C373.352 641.344 373.229 641.643 373.229 641.953C373.229 642.264 373.352 642.562 373.572 642.782C373.792 643.002 374.09 643.125 374.4 643.125C374.711 643.125 375.009 643.002 375.228 642.782C375.448 642.562 375.571 642.264 375.571 641.953C375.571 641.643 375.448 641.344 375.228 641.125C375.009 640.905 374.711 640.781 374.4 640.781Z" fill="#FCFCFC"/>
<path d="M229.065 623.125C228.778 623.161 228.514 623.302 228.323 623.519C228.131 623.737 228.026 624.016 228.026 624.306C228.026 624.596 228.131 624.876 228.323 625.093C228.514 625.311 228.778 625.451 229.065 625.488C229.353 625.451 229.617 625.311 229.808 625.093C229.999 624.876 230.105 624.596 230.105 624.306C230.105 624.016 229.999 623.737 229.808 623.519C229.617 623.302 229.353 623.161 229.065 623.125V623.125Z" fill="#FCFCFC"/>
<path d="M122.666 600.127C122.355 600.127 122.057 600.251 121.838 600.47C121.618 600.69 121.495 600.988 121.495 601.299C121.495 601.61 121.618 601.908 121.838 602.128C122.057 602.348 122.355 602.471 122.666 602.471C122.976 602.471 123.274 602.348 123.494 602.128C123.713 601.908 123.837 601.61 123.837 601.299C123.837 600.988 123.713 600.69 123.494 600.47C123.274 600.251 122.976 600.127 122.666 600.127Z" fill="#FCFCFC"/>
<path d="M304.689 604.93C303.844 604.93 303.034 605.266 302.436 605.864C301.838 606.462 301.502 607.274 301.502 608.119C301.502 608.965 301.838 609.777 302.436 610.375C303.034 610.973 303.844 611.309 304.689 611.309C305.535 611.309 306.345 610.973 306.943 610.375C307.541 609.777 307.876 608.965 307.876 608.119C307.876 607.274 307.541 606.462 306.943 605.864C306.345 605.266 305.535 604.93 304.689 604.93V604.93Z" fill="#FCFCFC"/>
<path d="M137.737 589.329C136.892 589.329 136.081 589.665 135.483 590.263C134.886 590.862 134.55 591.673 134.55 592.519C134.55 593.364 134.886 594.176 135.483 594.774C136.081 595.372 136.892 595.708 137.737 595.708C138.582 595.708 139.393 595.372 139.99 594.774C140.588 594.176 140.924 593.364 140.924 592.519C140.924 591.673 140.588 590.862 139.99 590.263C139.393 589.665 138.582 589.329 137.737 589.329V589.329Z" fill="#FCFCFC"/>
<path d="M139.292 221.057C137.737 221.057 79.7756 247.839 76.3006 313.817C73.152 374.452 115.044 432.053 120.458 428.229C127.081 423.56 115.812 385.788 128.694 342.559C133.263 327.189 153.23 313.624 153.23 313.624L139.292 221.057Z" fill="#263238"/>
<path opacity="0.1" d="M153.249 313.624C147.413 317.791 142.084 322.627 137.372 328.034C128.752 308.821 112.663 272.797 102.257 249.473C119.248 229.818 138.409 221.153 139.292 221.153L153.249 313.624Z" fill="black"/>
<path d="M286.892 221.172C288.447 221.172 346.408 248.07 349.749 314.009C352.821 374.664 310.833 432.187 305.419 428.364C298.815 423.695 310.123 385.922 297.317 342.674C292.767 327.304 272.819 313.72 272.819 313.72L286.892 221.172Z" fill="#263238"/>
<path opacity="0.1" d="M324.099 249.78C313.598 273.277 297.49 309.34 288.966 328.361C284.183 322.857 278.762 317.943 272.819 313.72L286.892 221.153C287.775 221.153 307.108 229.933 324.099 249.78Z" fill="black"/>
<path d="M256.942 372.819H169.453C169.453 372.819 128.233 299.061 133.11 211.124C135.567 167.222 147.029 123.013 160.833 86.4512C179.821 35.9405 203.301 0.10848 213.476 0.127693C223.651 0.146906 247.074 35.9982 266.004 86.4512C279.712 122.956 291.116 167.261 293.516 211.162C298.277 299.099 256.942 372.819 256.942 372.819Z" fill="#EBEBEB"/>
<path d="M265.697 199.769C265.693 209.76 262.729 219.525 257.178 227.83C251.628 236.135 243.742 242.606 234.516 246.425C225.291 250.243 215.141 251.239 205.35 249.285C195.56 247.33 186.568 242.514 179.513 235.446C172.457 228.377 167.655 219.373 165.713 209.573C163.772 199.773 164.778 189.617 168.604 180.389C172.431 171.161 178.906 163.276 187.211 157.731C195.516 152.187 205.278 149.231 215.262 149.239C228.645 149.249 241.476 154.578 250.934 164.054C260.392 173.529 265.702 186.376 265.697 199.769V199.769Z" fill="#C7C7C7"/>
<path d="M263.911 194.62C263.907 204.611 260.943 214.376 255.393 222.681C249.843 230.986 241.956 237.457 232.731 241.276C223.505 245.095 213.355 246.09 203.565 244.136C193.774 242.181 184.782 237.365 177.727 230.297C170.671 223.228 165.869 214.224 163.928 204.424C161.986 194.624 162.992 184.468 166.819 175.24C170.646 166.012 177.121 158.127 185.426 152.583C193.731 147.038 203.492 144.082 213.476 144.09C226.859 144.1 239.69 149.429 249.148 158.905C258.606 168.38 263.916 181.227 263.911 194.62V194.62Z" fill="#263238"/>
<path d="M248.437 194.601C248.437 201.528 246.385 208.3 242.539 214.059C238.693 219.819 233.227 224.308 226.832 226.959C220.436 229.61 213.399 230.304 206.61 228.953C199.821 227.601 193.584 224.265 188.69 219.367C183.795 214.469 180.461 208.228 179.111 201.434C177.761 194.639 178.454 187.597 181.103 181.197C183.752 174.797 188.238 169.327 193.993 165.478C199.749 161.63 206.516 159.575 213.438 159.575C218.034 159.575 222.585 160.481 226.832 162.242C231.078 164.002 234.936 166.582 238.186 169.834C241.436 173.086 244.014 176.948 245.773 181.197C247.532 185.446 248.437 190.001 248.437 194.601Z" fill="white"/>
<path d="M248.456 194.581C248.46 198.926 247.652 203.233 246.075 207.281L226.128 227.243C222.089 228.819 217.791 229.621 213.456 229.606C210.289 229.612 207.136 229.179 204.087 228.319L247.17 185.225C248.02 188.271 248.452 191.419 248.456 194.581V194.581Z" fill="#EBEBEB"/>
<path d="M218.583 159.96L178.822 199.73C178.567 198.032 178.439 196.318 178.438 194.601C178.444 189.57 179.533 184.6 181.631 180.028C183.729 175.457 186.787 171.392 190.597 168.11C194.407 164.828 198.879 162.406 203.708 161.009C208.537 159.613 213.611 159.275 218.583 160.017V159.96Z" fill="#EBEBEB"/>
<path d="M244.079 177.636L196.504 225.226C195.578 224.726 194.681 224.174 193.816 223.574L242.428 174.946C242.965 175.81 243.541 176.713 244.079 177.636Z" fill="#EBEBEB"/>
<path d="M266.004 86.4512H160.813C179.801 35.9406 203.281 0.108541 213.457 0.127754C223.632 0.146967 247.074 35.9982 266.004 86.4512Z" fill="#263238"/>
<path d="M178.937 75.519C178.922 76.0969 178.737 76.6575 178.405 77.1307C178.074 77.6039 177.61 77.9687 177.072 78.1794C176.534 78.3902 175.946 78.4375 175.381 78.3156C174.817 78.1936 174.3 77.9078 173.897 77.4938C173.494 77.0798 173.222 76.556 173.115 75.988C173.007 75.4199 173.07 74.8329 173.294 74.3002C173.519 73.7675 173.895 73.3129 174.376 72.9932C174.857 72.6734 175.422 72.5028 176 72.5026C176.392 72.5025 176.781 72.581 177.142 72.7335C177.504 72.886 177.831 73.1094 178.105 73.3906C178.378 73.6717 178.593 74.0049 178.736 74.3705C178.879 74.736 178.948 75.1266 178.937 75.519V75.519Z" fill="white"/>
<path d="M197.656 75.519C197.645 76.1025 197.461 76.6695 197.129 77.1488C196.796 77.6281 196.33 77.9984 195.787 78.2129C195.245 78.4274 194.652 78.4767 194.081 78.3546C193.511 78.2324 192.99 77.9443 192.583 77.5264C192.176 77.1085 191.901 76.5795 191.794 76.0059C191.687 75.4323 191.751 74.8398 191.98 74.3029C192.208 73.7659 192.59 73.3085 193.077 72.9882C193.565 72.6679 194.136 72.4989 194.719 72.5026C195.11 72.5051 195.498 72.5854 195.858 72.7388C196.218 72.8922 196.544 73.1157 196.818 73.3963C197.091 73.677 197.306 74.0091 197.45 74.3735C197.594 74.7379 197.664 75.1273 197.656 75.519V75.519Z" fill="white"/>
<path d="M216.375 75.5384C216.379 76.1252 216.208 76.6999 215.885 77.1894C215.561 77.6789 215.1 78.0611 214.559 78.2874C214.018 78.5137 213.422 78.5739 212.846 78.4604C212.271 78.3468 211.743 78.0647 211.328 77.6497C210.913 77.2348 210.631 76.7058 210.518 76.1301C210.404 75.5543 210.464 74.9578 210.691 74.4164C210.917 73.875 211.299 73.4131 211.788 73.0894C212.277 72.7658 212.851 72.595 213.438 72.5988C214.217 72.5988 214.964 72.9085 215.515 73.4598C216.066 74.0111 216.375 74.7588 216.375 75.5384V75.5384Z" fill="white"/>
<path d="M235.094 75.5576C235.094 76.1428 234.921 76.7148 234.596 77.2014C234.271 77.688 233.809 78.0672 233.269 78.2911C232.729 78.5151 232.134 78.5737 231.561 78.4595C230.987 78.3453 230.46 78.0635 230.047 77.6497C229.633 77.236 229.352 76.7087 229.237 76.1348C229.123 75.5609 229.182 74.9659 229.406 74.4253C229.63 73.8846 230.008 73.4225 230.495 73.0974C230.981 72.7723 231.553 72.5988 232.137 72.5988C232.526 72.5962 232.912 72.671 233.272 72.8188C233.632 72.9666 233.959 73.1844 234.234 73.4597C234.509 73.735 234.726 74.0621 234.874 74.4223C235.022 74.7824 235.096 75.1683 235.094 75.5576V75.5576Z" fill="white"/>
<path d="M253.794 75.5576C253.797 76.1444 253.627 76.7191 253.303 77.2086C252.98 77.6981 252.518 78.0803 251.977 78.3066C251.436 78.5329 250.84 78.5931 250.265 78.4796C249.69 78.366 249.161 78.0838 248.746 77.6689C248.332 77.2539 248.05 76.725 247.936 76.1492C247.823 75.5735 247.883 74.977 248.109 74.4356C248.335 73.8942 248.717 73.4323 249.206 73.1086C249.695 72.785 250.27 72.6142 250.856 72.618C251.634 72.623 252.378 72.9343 252.928 73.4845C253.477 74.0347 253.789 74.7795 253.794 75.5576V75.5576Z" fill="white"/>
<path d="M178.822 359.293C178.822 359.879 178.648 360.452 178.322 360.939C177.997 361.426 177.534 361.805 176.992 362.029C176.451 362.252 175.855 362.31 175.281 362.194C174.707 362.078 174.181 361.794 173.768 361.379C173.355 360.963 173.075 360.434 172.963 359.859C172.851 359.284 172.913 358.688 173.139 358.148C173.366 357.607 173.748 357.147 174.237 356.824C174.725 356.501 175.299 356.331 175.884 356.335C176.665 356.34 177.412 356.654 177.963 357.208C178.513 357.762 178.822 358.512 178.822 359.293V359.293Z" fill="#C7C7C7"/>
<path d="M197.541 359.293C197.545 359.879 197.375 360.453 197.052 360.942C196.73 361.431 196.269 361.814 195.729 362.041C195.189 362.268 194.594 362.329 194.02 362.217C193.445 362.105 192.916 361.825 192.501 361.412C192.085 360.999 191.802 360.471 191.686 359.897C191.571 359.322 191.628 358.727 191.851 358.185C192.074 357.643 192.453 357.18 192.94 356.854C193.427 356.528 193.999 356.354 194.584 356.354C195.365 356.354 196.114 356.663 196.668 357.214C197.222 357.764 197.536 358.512 197.541 359.293Z" fill="#C7C7C7"/>
<path d="M216.26 359.313C216.26 359.898 216.087 360.47 215.762 360.956C215.437 361.443 214.975 361.822 214.435 362.046C213.895 362.27 213.3 362.329 212.727 362.215C212.153 362.1 211.626 361.819 211.213 361.405C210.799 360.991 210.518 360.464 210.403 359.89C210.289 359.316 210.348 358.721 210.572 358.18C210.796 357.64 211.174 357.178 211.661 356.852C212.147 356.527 212.719 356.354 213.303 356.354C213.692 356.354 214.076 356.43 214.435 356.579C214.793 356.728 215.119 356.946 215.394 357.22C215.669 357.495 215.886 357.821 216.035 358.18C216.183 358.539 216.26 358.924 216.26 359.313V359.313Z" fill="#C7C7C7"/>
<path d="M234.96 359.332C234.96 359.918 234.786 360.491 234.46 360.978C234.134 361.465 233.671 361.844 233.13 362.067C232.589 362.29 231.993 362.348 231.419 362.232C230.845 362.116 230.318 361.833 229.906 361.417C229.493 361.001 229.213 360.472 229.101 359.897C228.989 359.322 229.05 358.726 229.277 358.186C229.504 357.646 229.886 357.185 230.374 356.862C230.863 356.539 231.437 356.369 232.022 356.373C232.803 356.378 233.55 356.692 234.1 357.246C234.651 357.801 234.96 358.55 234.96 359.332V359.332Z" fill="#C7C7C7"/>
<path d="M253.678 359.332C253.682 359.919 253.511 360.493 253.188 360.983C252.865 361.472 252.403 361.855 251.862 362.081C251.321 362.307 250.725 362.367 250.15 362.254C249.574 362.14 249.046 361.858 248.631 361.443C248.216 361.028 247.934 360.499 247.821 359.924C247.708 359.348 247.768 358.751 247.994 358.21C248.22 357.668 248.602 357.207 249.091 356.883C249.58 356.559 250.154 356.388 250.741 356.392C251.518 356.397 252.263 356.709 252.812 357.259C253.362 357.809 253.673 358.554 253.678 359.332V359.332Z" fill="#C7C7C7"/>
<path d="M248.879 399.141L177.709 399.083L174.387 372.762L252.238 372.819L248.879 399.141Z" fill="#263238"/>
<path opacity="0.1" d="M252.238 372.819L250.587 385.634L175.654 382.829L174.406 372.762L252.238 372.819Z" fill="black"/>
</svg>
