<?xml version="1.0" standalone="no"?>
<!DOCTYPE svg PUBLIC "-//W3C//DTD SVG 20010904//EN"
 "http://www.w3.org/TR/2001/REC-SVG-20010904/DTD/svg10.dtd">
<svg version="1.0" xmlns="http://www.w3.org/2000/svg"
 width="500.000000pt" height="500.000000pt" viewBox="0 0 500.000000 500.000000"
 preserveAspectRatio="xMidYMid meet">
<metadata>
Created by potrace 1.14, written by Peter Selinger 2001-2017
</metadata>
<g transform="translate(0.000000,500.000000) scale(0.100000,-0.100000)"
fill="#000000" stroke="none">
<path d="M1155 4933 c3 -75 13 -184 21 -223 2 -14 6 -36 9 -50 51 -271 138
-488 290 -721 98 -150 243 -313 370 -414 28 -22 52 -43 55 -46 3 -3 41 -31 85
-61 191 -133 453 -248 667 -294 141 -30 258 -43 453 -49 307 -10 577 -127 793
-344 410 -413 444 -1079 76 -1531 -222 -273 -539 -427 -885 -428 -68 0 -160 6
-204 14 -349 61 -642 270 -819 582 -41 73 -101 229 -110 286 -4 21 -8 41 -10
45 -8 13 -17 109 -21 216 -8 214 -29 363 -71 513 -14 48 -26 94 -28 102 -2 8
-18 50 -35 92 -239 602 -755 1043 -1376 1177 -129 28 -134 29 -337 46 -62 5
-43 -9 29 -23 37 -7 72 -16 77 -21 6 -4 27 -14 46 -21 31 -12 83 -43 129 -75
49 -34 227 -224 277 -295 263 -371 462 -893 509 -1335 3 -27 7 -108 10 -180 6
-190 19 -293 57 -435 11 -41 21 -82 23 -90 7 -33 58 -169 86 -228 16 -35 29
-65 29 -67 0 -12 116 -203 162 -268 281 -394 703 -669 1178 -767 146 -30 209
-35 415 -34 163 1 259 11 385 39 14 3 36 8 50 11 14 3 34 8 45 11 11 4 22 7
25 8 36 6 199 69 285 110 477 225 831 620 1002 1120 31 92 70 246 78 315 4 30
11 82 15 115 9 64 5 360 -5 435 -70 510 -336 971 -737 1278 -254 195 -583 334
-890 377 -21 3 -55 7 -75 10 -21 3 -105 8 -187 11 -82 2 -161 6 -175 9 -14 2
-48 7 -76 11 -27 3 -59 8 -70 10 -11 2 -33 7 -50 10 -59 10 -161 35 -230 55
-756 222 -1292 629 -1329 1008 -7 69 -14 58 -11 -16z"/>
</g>
</svg>
